<svg width="70" height="70" viewBox="0 0 70 70" fill="none" xmlns="http://www.w3.org/2000/svg">
<rect width="70" height="70" rx="8" fill="#221F22"/>
<path d="M12.0732 5.12935L12.5571 10.3244C13.4831 8.47952 14.8621 6.99142 16.6941 5.86012C18.6304 4.62004 20.9189 4 23.5594 4C26.1559 4 28.2903 4.77504 29.9626 6.32515C31.679 7.87524 32.5591 9.89037 32.6031 12.3705V32.9647H25.8038V14.7621C25.7598 13.3449 25.3417 12.1934 24.5496 11.3076C23.7574 10.3775 22.5252 9.89037 20.8529 9.84608C19.3566 9.84608 17.9923 10.3111 16.7601 11.2412C15.5279 12.1269 14.5597 13.3449 13.8555 14.895C13.1514 16.4451 12.7993 18.2388 12.7993 20.276V32.9647H6V5.12935H12.0732Z" fill="white"/>
<path fill-rule="evenodd" clip-rule="evenodd" d="M36.0059 11.2412C34.6856 13.4556 34.0255 15.9579 34.0255 18.7481C34.0255 21.804 34.6856 24.4613 36.0059 26.72C37.3701 28.9344 39.1965 30.6395 41.485 31.8353C43.8174 33.0311 46.4579 33.629 49.4065 33.629C52.4871 33.629 55.1716 32.9868 57.4601 31.7024C59.7485 30.3738 61.5088 28.5801 62.7411 26.3214C64.0173 24.0627 64.6554 21.5382 64.6554 18.7481C64.6554 15.9579 64.0173 13.4556 62.7411 11.2412C61.5088 8.98245 59.7485 7.21091 57.4601 5.92654C55.1716 4.64218 52.5091 4 49.4725 4C46.4799 4 43.8174 4.64218 41.485 5.92654C39.1525 7.21091 37.3261 8.98245 36.0059 11.2412ZM42.0131 23.5312C41.2649 22.114 40.8908 20.5417 40.8908 18.8145C40.8908 17.1315 41.2429 15.6036 41.9471 14.2306C42.6952 12.8134 43.7074 11.6841 44.9836 10.8426C46.2599 10.0011 47.7122 9.58035 49.3405 9.58035C50.9688 9.58035 52.4211 10.0011 53.6973 10.8426C54.9736 11.6841 55.9637 12.7913 56.6679 14.1642C57.416 15.5372 57.7901 17.0872 57.7901 18.8145C57.7901 20.5417 57.416 22.114 56.6679 23.5312C55.9637 24.9042 54.9736 26.0114 53.6973 26.8529C52.4211 27.65 50.9688 28.0486 49.3405 28.0486C47.7562 28.0486 46.3259 27.65 45.0497 26.8529C43.7734 26.0114 42.7612 24.9042 42.0131 23.5312Z" fill="white"/>
<path d="M6 36.2937H32.5885V42.7524H20.6695V64.8967H14.2516V42.7524H6V36.2937Z" fill="white"/>
<path fill-rule="evenodd" clip-rule="evenodd" d="M50.7412 64.629C47.5286 64.629 44.7781 64.009 42.4897 62.7689C40.2012 61.4845 38.4409 59.7351 37.2086 57.5207C35.9764 55.262 35.3603 52.6933 35.3603 49.8145C35.3603 47.0686 36.0424 44.5885 37.4066 42.374C38.8149 40.1153 40.6853 38.3216 43.0177 36.993C45.3942 35.6643 48.0127 35 50.8733 35C54.57 35 57.6286 36.0851 60.049 38.2552C62.5135 40.4253 64.1638 43.4591 65 47.3565L43.4369 54.8657C44.1912 56.0198 45.1517 56.9491 46.3184 57.6536C47.6826 58.4508 49.2009 58.8493 50.8733 58.8493C52.0615 58.8493 53.1837 58.6279 54.2399 58.185C55.3401 57.7421 56.3743 57.1885 57.3425 56.5242L60.4451 61.5731C58.9928 62.5032 57.4085 63.2561 55.6922 63.8318C54.0199 64.3633 52.3696 64.629 50.7412 64.629ZM42.0276 49.4823C42.0276 49.9279 42.049 50.3608 42.0919 50.7809L57.412 45.2464C56.8808 44.0054 56.0875 42.915 55.0321 41.9754C53.8878 40.9125 52.3256 40.3811 50.3452 40.3811C48.7609 40.3811 47.3306 40.7796 46.0544 41.5768C44.8221 42.3297 43.8319 43.3927 43.0838 44.7656C42.3796 46.0943 42.0276 47.6665 42.0276 49.4823Z" fill="#78DCE8"/>
</svg>
