<svg width="243" height="45" viewBox="0 0 243 45" fill="none" xmlns="http://www.w3.org/2000/svg">
<path d="M53 0H60V11H53V0Z" fill="white"/>
<path d="M120 0L120.924 2.93334H119.076L120 0Z" fill="white"/>
<path d="M118.768 3.91112H121.232L123.464 11H116.536L118.768 3.91112Z" fill="white"/>
<path d="M64.2797 11V0H71.6957V11H64.2797Z" fill="white"/>
<path d="M64.2797 42.944V13H71.6957V24.1469L86.9597 12.128L91.4957 16.088L80.4617 24.8577L92.8637 42.944H84.2237L75.3433 28.9257L71.6957 31.8248V42.944H64.2797Z" fill="white"/>
<path d="M203.669 11H196.253V0H203.669V11Z" fill="white"/>
<path d="M211.733 13H190.925V18.68H196.253V42.944H203.669V18.68H211.733V13Z" fill="white"/>
<path d="M60.1926 12.776H52.7766V42.944H60.1926V12.776Z" fill="white"/>
<path d="M6.624 12.776L7.18378 18.3737C8.3167 16.2993 9.83411 14.6734 11.736 13.496C13.752 12.2 16.08 11.552 18.72 11.552C20.352 11.552 21.816 11.816 23.112 12.344C24.456 12.872 25.56 13.616 26.424 14.576C27.2277 15.469 27.7614 16.5697 28.0252 17.878C29.1843 16.0096 30.6665 14.5249 32.472 13.424C34.488 12.176 36.624 11.552 38.88 11.552C41.808 11.552 44.136 12.392 45.864 14.072C47.64 15.752 48.552 17.912 48.6 20.552V42.944H41.256V23.36C41.208 21.872 40.848 20.624 40.176 19.616C39.552 18.608 38.424 18.056 36.792 17.96C35.064 17.96 33.528 18.488 32.184 19.544C30.888 20.6 29.88 21.968 29.16 23.648C28.44 25.328 28.056 27.128 28.008 29.048V42.944H20.592V23.36C20.544 21.872 20.184 20.624 19.512 19.616C18.84 18.608 17.664 18.056 15.984 17.96C14.256 17.96 12.744 18.488 11.448 19.544C10.152 20.6 9.144 21.992 8.424 23.72C7.752 25.4 7.416 27.176 7.416 29.048V42.944H0V12.776H6.624Z" fill="white"/>
<path d="M96.0182 42.44C98.0822 43.208 100.218 43.592 102.426 43.592C105.114 43.592 107.346 43.136 109.122 42.224C110.898 41.264 112.218 40.016 113.082 38.48C113.946 36.896 114.378 35.216 114.378 33.44C114.378 31.808 114.042 30.464 113.37 29.408C112.698 28.352 111.786 27.464 110.634 26.744C109.482 25.976 108.162 25.376 106.674 24.944C105.618 24.56 104.538 24.2 103.434 23.864C102.33 23.48 101.418 23 100.698 22.424C100.026 21.8 99.7142 21.008 99.7622 20.048C99.7622 19.376 99.9782 18.8 100.41 18.32C100.842 17.792 101.418 17.408 102.138 17.168C102.858 16.88 103.65 16.736 104.514 16.736C105.474 16.784 106.53 17.048 107.682 17.528C108.882 17.96 109.914 18.608 110.778 19.472L113.658 15.008C112.218 13.808 110.658 12.968 108.978 12.488C107.298 11.96 105.354 11.696 103.146 11.696C100.746 11.696 98.7302 12.152 97.0982 13.064C95.4662 13.976 94.2422 15.152 93.4262 16.592C92.6582 17.984 92.2742 19.472 92.2742 21.056C92.2742 23.12 92.9222 24.92 94.2182 26.456C95.5142 27.944 97.4342 29.096 99.9782 29.912C101.178 30.248 102.306 30.608 103.362 30.992C104.418 31.376 105.282 31.856 105.954 32.432C106.626 33.008 106.962 33.8 106.962 34.808C106.962 35.672 106.722 36.368 106.242 36.896C105.762 37.424 105.138 37.808 104.37 38.048C103.602 38.24 102.738 38.336 101.778 38.336C100.578 38.336 99.3062 38.048 97.9622 37.472C96.6662 36.848 95.3702 35.936 94.0742 34.736L90.9062 38.912C92.2502 40.448 93.9542 41.624 96.0182 42.44Z" fill="white"/>
<path d="M123.741 12.776H116.325V42.944H123.741V12.776Z" fill="white"/>
<path d="M134.98 18.4064L134.452 12.776H127.828V42.944H135.244V29.192C135.244 26.984 135.628 25.04 136.396 23.36C137.164 21.68 138.22 20.36 139.564 19.4C140.908 18.392 142.396 17.888 144.028 17.888C145.852 17.936 147.196 18.464 148.06 19.472C148.924 20.432 149.38 21.68 149.428 23.216V42.944H156.844V20.624C156.796 17.936 155.836 15.752 153.964 14.072C152.14 12.392 149.812 11.552 146.98 11.552C144.1 11.552 141.604 12.224 139.492 13.568C137.494 14.7941 135.99 16.4069 134.98 18.4064Z" fill="white"/>
<path fill-rule="evenodd" clip-rule="evenodd" d="M160.555 19.4C159.115 21.8 158.396 24.512 158.396 27.536C158.396 30.848 159.115 33.728 160.555 36.176C162.044 38.576 164.036 40.424 166.532 41.72C169.076 43.016 171.956 43.664 175.172 43.664C178.532 43.664 181.46 42.968 183.956 41.576C186.452 40.136 188.372 38.192 189.715 35.744C191.107 33.296 191.803 30.56 191.803 27.536C191.803 24.512 191.107 21.8 189.715 19.4C188.372 16.952 186.452 15.032 183.956 13.64C181.46 12.248 178.555 11.552 175.243 11.552C171.979 11.552 169.076 12.248 166.532 13.64C163.988 15.032 161.995 16.952 160.555 19.4ZM167.107 32.72C166.292 31.184 165.883 29.48 165.883 27.608C165.883 25.784 166.268 24.128 167.036 22.64C167.852 21.104 168.956 19.88 170.348 18.968C171.74 18.056 173.324 17.6 175.1 17.6C176.876 17.6 178.46 18.056 179.852 18.968C181.243 19.88 182.324 21.08 183.092 22.568C183.908 24.056 184.316 25.736 184.316 27.608C184.316 29.48 183.908 31.184 183.092 32.72C182.324 34.208 181.243 35.408 179.852 36.32C178.46 37.184 176.876 37.616 175.1 37.616C173.372 37.616 171.812 37.184 170.42 36.32C169.028 35.408 167.923 34.208 167.107 32.72Z" fill="white"/>
<path fill-rule="evenodd" clip-rule="evenodd" d="M226.725 44.112C223.221 44.112 220.221 43.44 217.725 42.096C215.229 40.704 213.309 38.808 211.965 36.408C210.621 33.96 209.949 31.176 209.949 28.056C209.949 25.08 210.693 22.392 212.181 19.992C213.717 17.544 215.757 15.6 218.301 14.16C220.893 12.72 223.749 12 226.869 12C230.901 12 234.237 13.176 236.877 15.528C239.565 17.88 241.365 21.168 242.277 25.392L218.758 33.5305C219.58 34.7813 220.628 35.7885 221.901 36.552C223.389 37.416 225.045 37.848 226.869 37.848C228.165 37.848 229.389 37.608 230.541 37.128C231.741 36.648 232.869 36.048 233.925 35.328L237.309 40.8C235.725 41.808 233.997 42.624 232.125 43.248C230.301 43.824 228.501 44.112 226.725 44.112ZM217.221 27.696C217.221 28.1789 217.244 28.648 217.291 29.1034L234 23.1051C233.421 21.76 232.556 20.5783 231.405 19.56C230.157 18.408 228.453 17.832 226.293 17.832C224.565 17.832 223.005 18.264 221.613 19.128C220.269 19.944 219.189 21.096 218.373 22.584C217.605 24.024 217.221 25.728 217.221 27.696Z" fill="#78DCE8"/>
</svg>
